<svg width="88" height="88" viewBox="0 0 88 88" fill="none" xmlns="http://www.w3.org/2000/svg">
<path d="M44 0C36.4375 0 28.9859 1.96894 22.4144 5.67742H5.67742V22.4144C1.96894 28.9845 0 36.4361 0 44C0 50.5347 1.41381 56.8151 4.17559 62.6886C3.32107 64.8121 2.83871 67.1227 2.83871 69.5484C2.83871 79.7223 11.1164 88 21.2903 88C24.4936 88 27.5069 87.1767 30.1356 85.7344C34.6155 87.2238 39.272 88 44 88C68.2628 88 88 68.2607 88 44C88 19.7393 68.2628 0 44 0ZM85.1613 44C85.1613 49.2886 84.1481 54.3416 82.3226 58.9912V36.9032H68.129V10.6833C78.4395 18.1702 85.1613 30.3117 85.1613 44ZM8.51613 19.871H65.2903V36.9032H28.3871V22.7097H11.3548V42.5806H19.871V45.4194H8.51613V19.871ZM19.871 36.9032V39.7419H14.1935V25.5484H25.5484V36.9032H19.871ZM22.7097 39.7419H79.4839V48.2581H22.7097V39.7419ZM44 2.83871C49.2886 2.83871 54.3416 3.85194 58.9912 5.67742H29.0358C33.788 3.82075 38.8632 2.83871 44 2.83871ZM64.8232 8.51613C64.9778 8.60692 65.1372 8.69216 65.2903 8.78434V17.0323H8.51613V8.51613H64.8232ZM2.83871 44C2.83871 38.8632 3.82075 33.7866 5.67742 29.0344V48.2581H19.871V51.1688C14.0106 51.6193 8.91047 54.8066 5.85622 59.4653C3.85956 54.5585 2.83871 49.3711 2.83871 44ZM5.67742 69.5484C5.67742 60.9401 12.682 53.9355 21.2903 53.9355C29.8986 53.9355 36.9032 60.9401 36.9032 69.5484C36.9032 78.1567 29.8986 85.1613 21.2903 85.1613C12.682 85.1613 5.67742 78.1567 5.67742 69.5484ZM33.1317 83.6796C34.5628 82.4785 35.8006 81.0605 36.8138 79.4839H64.8232C58.7099 83.0863 51.5951 85.1613 44 85.1613C40.3123 85.1613 36.6717 84.6491 33.1317 83.6796ZM69.0286 76.6452H38.3184C39.2325 74.4593 39.7419 72.0621 39.7419 69.5484C39.7419 59.8527 32.221 51.8986 22.7097 51.1688V51.0968H79.4839V64.8232C76.7845 69.4049 73.2257 73.419 69.0286 76.6452Z" fill="#5F41D9"/>
<path d="M17.0738 80.5602L22.7568 57.8519L25.5096 58.5408L19.8259 81.2491L17.0738 80.5602Z" fill="#5F41D9"/>
<path d="M28.0759 61.5645L25.8596 63.3387L30.8287 69.5484L25.8596 75.7581L28.0759 77.5323L34.4616 69.5484L28.0759 61.5645Z" fill="#5F41D9"/>
<path d="M14.5047 61.5645L8.11901 69.5484L14.5047 77.5323L16.7211 75.7581L11.752 69.5484L16.7211 63.3387L14.5047 61.5645Z" fill="#5F41D9"/>
<path d="M11.3548 11.3548H14.1935V14.1935H11.3548V11.3548Z" fill="#5F41D9"/>
<path d="M17.0323 11.3548H19.871V14.1935H17.0323V11.3548Z" fill="#5F41D9"/>
<path d="M22.7097 11.3548H25.5484V14.1935H22.7097V11.3548Z" fill="#5F41D9"/>
<path d="M25.5484 42.5806H28.3871V45.4194H25.5484V42.5806Z" fill="#5F41D9"/>
<path d="M31.2258 42.5806H34.0645V45.4194H31.2258V42.5806Z" fill="#5F41D9"/>
<path d="M36.9032 42.5806H39.7419V45.4194H36.9032V42.5806Z" fill="#5F41D9"/>
<path d="M31.2258 22.7097H34.0645V25.5484H31.2258V22.7097Z" fill="#5F41D9"/>
<path d="M36.9032 22.7097H62.4516V25.5484H36.9032V22.7097Z" fill="#5F41D9"/>
<path d="M31.2258 28.3871H34.0645V31.2258H31.2258V28.3871Z" fill="#5F41D9"/>
<path d="M36.9032 28.3871H62.4516V31.2258H36.9032V28.3871Z" fill="#5F41D9"/>
<path d="M65.2903 53.9355C59.8132 53.9355 55.3548 58.3925 55.3548 63.871C55.3548 69.3495 59.8132 73.8064 65.2903 73.8064C70.7674 73.8064 75.2258 69.3495 75.2258 63.871C75.2258 58.3925 70.7674 53.9355 65.2903 53.9355ZM65.2903 70.9677C61.3774 70.9677 58.1935 67.7839 58.1935 63.871C58.1935 59.958 61.3774 56.7742 65.2903 56.7742C69.2032 56.7742 72.3871 59.958 72.3871 63.871C72.3871 67.7839 69.2032 70.9677 65.2903 70.9677Z" fill="#5F41D9"/>
<path d="M42.5806 70.9677H52.5161V73.8064H42.5806V70.9677Z" fill="#5F41D9"/>
<path d="M42.5806 65.2903H52.5161V68.129H42.5806V65.2903Z" fill="#5F41D9"/>
<path d="M42.5806 59.6129H52.5161V62.4516H42.5806V59.6129Z" fill="#5F41D9"/>
<path d="M36.9032 53.9355H52.5161V56.7742H36.9032V53.9355Z" fill="#5F41D9"/>
</svg>
